<?xml version="1.0" encoding="UTF-8" standalone="no"?>
<!-- Created with Inkscape (http://www.inkscape.org/) -->

<svg
   xmlns:dc="http://purl.org/dc/elements/1.1/"
   xmlns:cc="http://creativecommons.org/ns#"
   xmlns:rdf="http://www.w3.org/1999/02/22-rdf-syntax-ns#"
   xmlns:svg="http://www.w3.org/2000/svg"
   xmlns="http://www.w3.org/2000/svg"
   xmlns:sodipodi="http://sodipodi.sourceforge.net/DTD/sodipodi-0.dtd"
   xmlns:inkscape="http://www.inkscape.org/namespaces/inkscape"
   width="741.1601"
   height="678.44043"
   id="svg2"
   version="1.1"
   inkscape:version="0.48.4 r9939"
   sodipodi:docname="theme2.svg">
  <defs
     id="defs4">
    <inkscape:path-effect
       effect="spiro"
       id="path-effect6137"
       is_visible="true" />
  </defs>
  <sodipodi:namedview
     id="base"
     pagecolor="#ffffff"
     bordercolor="#666666"
     borderopacity="1.0"
     inkscape:pageopacity="0.0"
     inkscape:pageshadow="2"
     inkscape:zoom="0.35"
     inkscape:cx="210.45869"
     inkscape:cy="32.963867"
     inkscape:document-units="px"
     inkscape:current-layer="layer1"
     showgrid="false"
     inkscape:window-width="1366"
     inkscape:window-height="744"
     inkscape:window-x="0"
     inkscape:window-y="24"
     inkscape:window-maximized="1"
     fit-margin-top="0"
     fit-margin-left="0"
     fit-margin-right="0"
     fit-margin-bottom="0"
     showguides="true"
     inkscape:guide-bbox="true" />
  <metadata
     id="metadata7">
    <rdf:RDF>
      <cc:Work
         rdf:about="">
        <dc:format>image/svg+xml</dc:format>
        <dc:type
           rdf:resource="http://purl.org/dc/dcmitype/StillImage" />
        <dc:title></dc:title>
      </cc:Work>
    </rdf:RDF>
  </metadata>
  <g
     inkscape:label="Layer 1"
     inkscape:groupmode="layer"
     id="layer1"
     transform="translate(-2.3286679,-4.1298766)">
    <rect
       style="fill:#ffaaaa;fill-opacity:1;stroke:none"
       id="rect2985"
       width="741.1601"
       height="678.44043"
       x="3.3388205"
       y="5.140029"
       ry="0" />
    <path
       style="fill:#ffffff;fill-opacity:1;fill-rule:nonzero;stroke:none"
       d="m 360.9121,12.406465 c -25.59393,1.174462 -46.99573,16.654745 -49.1698,34.728544 -1.05158,2.162712 -5.64687,1.437908 -6.82978,-0.426302 -12.9774,-8.691248 -32.71156,-12.943619 -49.07901,-8.32692 -15.29326,4.539073 -24.14392,16.131046 -25.21195,27.71499 -0.49162,6.753795 1.41782,13.722882 5.99052,19.840674 -3.12895,1.138849 -5.17688,-1.987539 -8.14001,-2.268556 -16.55292,-6.135297 -36.5817,-8.976541 -53.87415,-4.248489 -15.3846,4.185877 -25.25978,16.024106 -23.57783,27.879714 0.51659,9.21016 6.07006,18.10172 13.81091,25.59529 0.69787,2.42834 -3.65704,2.86588 -6.12994,2.90296 -12.83135,0.64894 -26.84076,1.28221 -36.8617,7.39637 -10.68679,6.45847 -15.06002,17.41501 -11.48549,27.35 3.06546,9.96243 12.06038,19.06953 24.1868,24.69599 1.05752,2.10972 -2.98259,2.75418 -5.18662,2.45276 -17.57363,1.20357 -35.706276,5.05089 -47.856761,14.29017 -9.109887,7.20379 -9.960038,18.44668 -4.186649,27.40591 5.127668,9.20482 15.576686,16.48013 26.89145,22.0421 1.97745,2.04441 -1.8777,3.36797 -4.13079,3.73567 -15.118106,3.93468 -29.26594,11.66352 -34.330651,22.90098 -5.410826,11.72837 -0.741379,26.2669 13.313344,34.62824 5.280023,3.4039 11.443577,6.24492 18.292619,7.57696 2.328532,1.59347 -0.143553,4.23165 -2.881616,4.22213 -16.354238,5.41191 -27.522533,18.69421 -23.979622,31.90985 2.766269,9.59332 14.737116,16.76879 27.291105,19.91004 5.240451,1.45489 10.729171,2.29117 16.203031,3.02374 -20.575461,2.5857 -36.64408,15.48982 -39.09174,30.16167 -0.746654,10.67794 9.51764,20.99948 23.100376,25.54186 9.217124,3.5513 19.117634,6.43508 29.368344,7.64952 4.94593,0.2345 9.86368,-0.2173 14.61254,-1.01553 -13.08974,4.08676 -24.57785,10.90725 -31.10323,20.04201 -4.08478,5.73668 -6.83845,12.60709 -4.18058,19.16118 4.68509,10.755 20.16234,17.92395 35.32316,18.80859 6.39185,0.47975 12.86123,-0.10831 18.78982,-1.63511 1.87185,2.40917 -2.52728,3.99923 -2.57586,6.28006 -6.03497,10.59533 -9.329,22.73715 -4.55293,34.23824 6.33042,10.42155 22.86097,16.541 38.10258,15.98066 8.25822,0.10004 16.17975,-1.74617 23.45881,-4.16713 3.14078,0.5545 2.46566,3.38287 1.38975,4.86441 -2.46864,11.14614 -0.74829,23.67556 9.39058,33.19481 9.26562,8.18025 25.56941,10.51029 38.88994,7.98833 9.02179,-1.43708 16.8214,-5.15392 23.53293,-9.44864 3.83799,-0.74961 5.48498,2.65383 6.81957,4.57232 7.31149,9.91733 15.70838,20.34912 29.69765,26.24007 20.50174,8.12063 47.8603,2.84565 59.72499,-10.61883 3.95489,-4.25995 6.06461,-9.23505 9.32387,-13.76635 3.27067,-1.59287 6.48518,1.14243 8.76796,2.66695 11.89908,7.74108 26.08491,14.95266 42.33599,16.0078 19.59645,1.13819 37.71856,-9.03388 42.38334,-22.20837 2.70627,-6.535 2.61352,-13.51881 1.9828,-20.35755 1.20539,-2.32534 5.2937,-1.07214 7.74317,-0.52827 15.56377,3.34831 32.99782,3.67836 47.16179,-1.78375 18.91342,-7.11812 27.74652,-25.12019 18.69502,-39.62728 -4.61815,-8.36527 -12.13719,-15.82498 -20.56849,-22.53195 14.25109,3.50205 29.35043,2.36256 43.70747,1.06053 10.15376,-1.32863 20.57213,-5.21341 24.24425,-12.41753 5.43205,-9.83805 1.02727,-21.44927 -7.94165,-29.97911 -7.96708,-7.95479 -18.29911,-14.71245 -29.92324,-19.86283 4.10325,0.63546 8.1301,1.52491 12.31642,1.8677 21.89627,2.30116 45.20608,-0.59933 62.36885,-10.2209 13.35693,-7.69352 24.73349,-18.39555 26.08977,-31.16802 1.23124,-14.70805 -10.98275,-29.64449 -29.26342,-37.03767 -7.8004,-3.66426 -15.90166,-6.97042 -23.77161,-10.55265 13.26748,0.77379 27.07299,-0.5932 38.0472,-5.83271 13.27453,-5.84841 22.65416,-16.77956 20.94229,-28.37951 -1.27927,-11.18006 -11.60652,-21.21072 -24.55158,-27.52158 -5.03943,-2.58732 -10.58767,-4.62102 -16.26267,-6.34268 -1.78593,-1.80086 1.29524,-3.42484 3.56516,-3.66867 14.8616,-5.88687 23.28387,-19.72434 16.81592,-31.69176 -5.6265,-8.96205 -18.72365,-14.31475 -31.54015,-16.50827 -4.77221,-0.95675 -9.65113,-1.52681 -14.47473,-2.2971 0.29909,-2.78037 5.14985,-2.95549 7.1334,-4.87589 14.76643,-8.11037 23.58795,-22.2575 19.17229,-35.88205 -4.46205,-11.10973 -19.13257,-18.93764 -34.27445,-21.82048 -6.45588,-1.2059 -13.03218,-1.9436 -19.56392,-2.83689 -2.64967,-1.53679 -0.0391,-3.959 2.25436,-4.63295 6.80468,-3.48014 15.35878,-6.39017 18.07202,-12.52785 5.91498,-9.29899 1.95391,-22.13273 -10.98872,-28.01359 -14.03998,-6.53294 -32.771,-6.32505 -46.42242,-0.49105 -2.78296,0.73388 -5.38102,-2.19879 -3.42404,-3.69525 4.75714,-9.74678 9.43057,-20.40868 5.23375,-30.96755 C 545.0373,87.427228 528.3681,79.873064 512.2929,79.649708 c -6.22991,-0.31355 -12.21991,1.048126 -18.01836,2.158409 -3.28849,-0.421557 -3.45641,-3.431001 -2.20242,-5.071811 1.90567,-4.850445 3.89693,-9.89433 2.38463,-15.057072 -2.17903,-11.540118 -15.20427,-22.497368 -31.76665,-24.352562 -17.96672,-2.617845 -37.50963,2.598825 -47.29955,13.317962 -3.37886,0.393457 -4.3104,-2.676983 -4.55139,-4.462423 -5.4369,-15.619095 -23.22105,-29.793612 -45.65767,-33.40299 -1.41199,-0.183827 -2.84112,-0.369237 -4.26939,-0.372759 z"
       id="path3045"
       inkscape:connector-curvature="0" />
    <path
       style="fill:#ff8bc2;stroke:none;stroke-opacity:0.46575344;opacity:1;fill-opacity:1;stroke-width:3.332;stroke-miterlimit:4;stroke-dasharray:none;fill-rule:nonzero"
       id="path6141" />
    <g
       id="g2998"
       transform="matrix(0.76495219,0,0,0.76495219,87.116548,100.70481)">
      <g
         transform="matrix(1.3524842,0,0,1.3749274,-122.90098,-44.788197)"
         id="g4586">
        <g
           id="g4577">
          <path
             sodipodi:nodetypes="ccccc"
             inkscape:connector-curvature="0"
             id="path4726"
             d="m 326.77135,298.24781 c -20.0676,31.36765 -32.7293,64.58652 -10.45642,104.69406 l 106.05792,1.83674 c 16.31872,-42.59694 6.89632,-84.35832 -14.56429,-106.5308 z"
             style="fill:#c8e4f9;fill-opacity:1;stroke:none" />
          <path
             transform="matrix(2.2632518,-0.51060351,0.25260376,0.96661858,-449.24404,74.70774)"
             d="m 305.06607,503.68405 c 0,8.92627 -6.55778,16.16244 -14.64722,16.16244 -8.08943,0 -14.64721,-7.23617 -14.64721,-16.16244 0,-8.92627 6.55778,-16.16244 14.64721,-16.16244 8.08944,0 14.64722,7.23617 14.64722,16.16244 z"
             sodipodi:ry="16.162441"
             sodipodi:rx="14.647212"
             sodipodi:cy="503.68405"
             sodipodi:cx="290.41885"
             id="path6109"
             style="fill:#ffdc9d;fill-opacity:1;fill-rule:nonzero;stroke:none"
             sodipodi:type="arc" />
          <path
             transform="matrix(2.2557822,0.5257968,-0.25503262,0.96755181,-122.99296,-226.84244)"
             d="m 305.06607,503.68405 c 0,8.92627 -6.55778,16.16244 -14.64722,16.16244 -8.08943,0 -14.64721,-7.23617 -14.64721,-16.16244 0,-8.92627 6.55778,-16.16244 14.64721,-16.16244 8.08944,0 14.64722,7.23617 14.64722,16.16244 z"
             sodipodi:ry="16.162441"
             sodipodi:rx="14.647212"
             sodipodi:cy="503.68405"
             sodipodi:cx="290.41885"
             id="path6109-0"
             style="fill:#ffdc9d;fill-opacity:1;fill-rule:nonzero;stroke:none"
             sodipodi:type="arc" />
          <path
             sodipodi:nodetypes="ccc"
             inkscape:connector-curvature="0"
             id="path3792"
             d="m 403.96582,99.452315 c -34.93442,17.221575 16.0086,41.922635 -28.28427,91.923875 50.32396,12.92805 63.61981,-99.3248 28.28427,-91.923875 z"
             style="fill:#c2e5ff;fill-opacity:1;stroke:none" />
          <path
             sodipodi:nodetypes="cscc"
             inkscape:connector-curvature="0"
             id="path3792-5"
             d="m 293.07386,123.84967 c -8.62859,23.90846 11.29953,24.74493 26.95728,40.99004 8.33516,8.64783 15.46018,21.66215 16.42301,44.84788 45.21925,-25.59014 -23.05813,-115.677229 -43.38029,-85.83792 z"
             style="fill:#c2e5ff;fill-opacity:1;stroke:none" />
          <path
             transform="matrix(0.85145164,0,0,1.6892411,64.5617,-97.261658)"
             d="m 439.41634,199.3756 c 0,21.89725 -37.19844,39.64848 -83.08504,39.64848 -45.8866,0 -83.08505,-17.75123 -83.08505,-39.64848 0,-21.89726 37.19845,-39.64849 83.08505,-39.64849 45.8866,0 83.08504,17.75123 83.08504,39.64849 z"
             sodipodi:ry="39.648487"
             sodipodi:rx="83.085045"
             sodipodi:cy="199.3756"
             sodipodi:cx="356.3313"
             id="path3020"
             style="fill:#ffdc9d;fill-opacity:1;stroke:none"
             sodipodi:type="arc" />
        </g>
      </g>
      <path
         sodipodi:nodetypes="cc"
         inkscape:connector-curvature="0"
         id="path4598"
         d="m 317.09732,262.87471 c 7.20793,-8.29375 18.70851,-23.84089 45.3524,-2.10689"
         style="fill:none;stroke:#000000;stroke-width:8;stroke-linecap:butt;stroke-linejoin:miter;stroke-miterlimit:4;stroke-opacity:1;stroke-dasharray:none" />
      <path
         sodipodi:nodetypes="cc"
         inkscape:connector-curvature="0"
         id="path4598-4"
         d="m 391.91787,261.61132 c 9.53385,-10.61454 26.71533,-19.34608 46.86763,-0.59166"
         style="fill:none;stroke:#000000;stroke-width:8;stroke-linecap:butt;stroke-linejoin:miter;stroke-miterlimit:4;stroke-opacity:1;stroke-dasharray:none" />
      <path
         transform="translate(-7.6713321,-9.8701234)"
         d="m 357.594,382.46573 c 0,11.71573 -9.49747,21.2132 -21.2132,21.2132 -11.71573,0 -21.21321,-9.49747 -21.21321,-21.2132 0,-11.71573 9.49748,-21.2132 21.21321,-21.2132 11.71573,0 21.2132,9.49747 21.2132,21.2132 z"
         sodipodi:ry="21.213203"
         sodipodi:rx="21.213203"
         sodipodi:cy="382.46573"
         sodipodi:cx="336.3808"
         id="path4620"
         style="fill:#ffaaaa;fill-opacity:1;stroke:none"
         sodipodi:type="arc" />
      <path
         transform="translate(91.09072,-9.3239941)"
         d="m 357.594,382.46573 c 0,11.71573 -9.49747,21.2132 -21.2132,21.2132 -11.71573,0 -21.21321,-9.49747 -21.21321,-21.2132 0,-11.71573 9.49748,-21.2132 21.21321,-21.2132 11.71573,0 21.2132,9.49747 21.2132,21.2132 z"
         sodipodi:ry="21.213203"
         sodipodi:rx="21.213203"
         sodipodi:cy="382.46573"
         sodipodi:cx="336.3808"
         id="path4620-9"
         style="fill:#ffaaaa;fill-opacity:1;stroke:none"
         sodipodi:type="arc" />
    </g>
    <path
       style="fill:#ffaaaa;fill-opacity:1;stroke:none"
       d="m 292.49303,38.992608 c -13.98798,39.087321 -5.20751,78.174642 15.748,117.261962 41.93878,14.45774 79.34002,10.76534 115.61376,2.56295 12.05743,-22.78611 24.06233,-45.69478 12.45162,-123.706538 C 332.851,-15.303564 299.04134,26.581375 292.49303,38.992608 z"
       id="path3012"
       inkscape:connector-curvature="0"
       sodipodi:nodetypes="ccccc" />
    <g
       transform="matrix(0.23371692,0,0,0.23371692,291.3032,-73.237443)"
       id="layer1-3"
       inkscape:label="Layer 1"
       style="stroke:none">
      <path
         transform="matrix(1.0860565,0,-0.00303013,1.089102,-72.950811,482.13523)"
         d="m 505.07628,283.70554 c 0,110.46258 -89.54762,200.0102 -200.01021,200.0102 -110.46259,0 -200.01021,-89.54762 -200.01021,-200.0102 0,-110.46259 89.54762,-200.010212 200.01021,-200.010212 110.46259,0 200.01021,89.547622 200.01021,200.010212 z"
         sodipodi:ry="200.01021"
         sodipodi:rx="200.01021"
         sodipodi:cy="283.70554"
         sodipodi:cx="305.06607"
         id="path2988"
         style="fill:#ffffff;fill-opacity:1;stroke:none"
         sodipodi:type="arc" />
      <path
         sodipodi:nodetypes="ccc"
         inkscape:connector-curvature="0"
         id="path3762"
         d="m 134.9187,613.00459 c 81.92384,26.49012 165.67333,22.62866 246.78535,-0.004 -76.72953,-52.64739 -172.51095,-52.41146 -246.78535,0.004 z"
         style="fill:#c35e73;fill-opacity:1;stroke:none" />
      <path
         sodipodi:nodetypes="ccccc"
         inkscape:connector-curvature="0"
         id="path3764"
         d="m 135.32777,613.02623 c -17.45708,10.76644 -31.58846,24.99866 -46.291577,41.41878 111.765057,34.2647 225.366037,40.00278 335.509367,-1.95345 -12.89855,-13.88508 -22.85937,-25.64214 -43.3812,-39.64372 -77.94789,21.47941 -161.40048,25.73863 -245.83659,0.17839 z"
         style="fill:#cd945b;fill-opacity:1;stroke:none" />
      <path
         sodipodi:nodetypes="ccccc"
         inkscape:connector-curvature="0"
         id="path3766"
         d="M 90.290883,654.04545 C 60.20126,687.93132 45.747958,742.69058 45.067546,753.96748 174.21029,784.45967 328.94042,757.60046 450.96389,693.0606 437.70868,670.20333 436.79199,668.15151 423.88213,652.32265 313.63217,693.77404 201.35178,688.01083 90.290883,654.04545 z"
         style="fill:#d9bc4a;fill-opacity:1;stroke:none" />
      <path
         sodipodi:nodetypes="ccccc"
         inkscape:connector-curvature="0"
         id="path3768"
         d="M 47.073247,738.70304 C 43.96222,760.33557 43.984029,751.548 40.849763,778.42547 191.84654,822.97638 333.52982,809.60654 472.825,775.70616 473.80744,747.72995 461.14104,712.04604 450.78549,692.37762 331.60987,762.47314 129.99333,765.64534 47.073247,738.70304 z"
         style="fill:#87a65a;fill-opacity:1;stroke:none" />
      <path
         sodipodi:nodetypes="ccccc"
         inkscape:connector-curvature="0"
         id="path3770"
         d="m 41.852612,769.98727 c -2.049455,17.22771 -0.818632,53.93055 6.660523,77.87248 125.167795,18.64742 291.572595,3.7919 425.063465,-47.14346 -0.0412,-13.5938 0.78813,-1.91914 -0.59166,-28.02185 -128.30882,31.08834 -277.89345,51.8098 -431.132328,-2.70717 z"
         style="fill:#b675b9;fill-opacity:1;stroke:none" />
      <path
         sodipodi:nodetypes="ccccc"
         inkscape:connector-curvature="0"
         id="path3772"
         d="m 48.765432,847.1984 c 4.471341,16.85051 15.229882,47.58252 27.5647,62.86032 185.131828,60.80077 303.630658,-14.15999 395.199608,-85.02283 1.35882,-12.89207 1.32984,-4.51331 1.90064,-24.41776 C 310.08146,851.9466 171.54133,864.03261 48.765432,847.1984 z"
         style="fill:#5f93a0;fill-opacity:1;stroke:none" />
      <path
         sodipodi:nodetypes="ccccc"
         inkscape:connector-curvature="0"
         id="path3774"
         d="m 76.025581,909.9236 c 21.640452,32.17219 28.219689,34.5329 43.122099,48.19495 187.37564,46.63225 248.65685,-18.90475 332.49379,-71.26687 10.61324,-23.69343 20.00376,-44.70368 21.52766,-77.37158 -106.5312,73.2143 -245.70834,90.51875 -397.143549,100.4435 z"
         style="fill:#c35e73;fill-opacity:1;stroke:none" />
      <path
         sodipodi:nodetypes="ccc"
         inkscape:connector-curvature="0"
         id="path3776"
         d="M 117.16316,957.16187 C 232.72579,1053.9348 394.935,1003.841 451.38822,886.50633 343.98561,947.6926 232.66254,978.59996 117.16316,957.16187 z"
         style="fill:#cd945b;fill-opacity:1;stroke:none" />
    </g>
  </g>
</svg>
