<?xml version="1.0" encoding="UTF-8" standalone="no"?>
<!-- Created with Inkscape (http://www.inkscape.org/) -->

<svg
   xmlns:dc="http://purl.org/dc/elements/1.1/"
   xmlns:cc="http://creativecommons.org/ns#"
   xmlns:rdf="http://www.w3.org/1999/02/22-rdf-syntax-ns#"
   xmlns:svg="http://www.w3.org/2000/svg"
   xmlns="http://www.w3.org/2000/svg"
   xmlns:sodipodi="http://sodipodi.sourceforge.net/DTD/sodipodi-0.dtd"
   xmlns:inkscape="http://www.inkscape.org/namespaces/inkscape"
   width="741.1601"
   height="678.44043"
   id="svg2"
   version="1.1"
   inkscape:version="0.48.4 r9939"
   sodipodi:docname="theme1.svg">
  <defs
     id="defs4" />
  <sodipodi:namedview
     id="base"
     pagecolor="#ffffff"
     bordercolor="#666666"
     borderopacity="1.0"
     inkscape:pageopacity="0.0"
     inkscape:pageshadow="2"
     inkscape:zoom="0.49497475"
     inkscape:cx="491.08991"
     inkscape:cy="241.28828"
     inkscape:document-units="px"
     inkscape:current-layer="layer1"
     showgrid="false"
     inkscape:window-width="1366"
     inkscape:window-height="744"
     inkscape:window-x="0"
     inkscape:window-y="24"
     inkscape:window-maximized="1"
     fit-margin-top="0"
     fit-margin-left="0"
     fit-margin-right="0"
     fit-margin-bottom="0" />
  <metadata
     id="metadata7">
    <rdf:RDF>
      <cc:Work
         rdf:about="">
        <dc:format>image/svg+xml</dc:format>
        <dc:type
           rdf:resource="http://purl.org/dc/dcmitype/StillImage" />
        <dc:title></dc:title>
      </cc:Work>
    </rdf:RDF>
  </metadata>
  <g
     inkscape:label="Layer 1"
     inkscape:groupmode="layer"
     id="layer1"
     transform="translate(-2.3286679,-4.1298766)">
    <rect
       style="fill:#f7bc74;fill-opacity:1;stroke:none"
       id="rect2985"
       width="741.1601"
       height="678.44043"
       x="2.3286679"
       y="4.1298766"
       ry="0" />
    <rect
       style="fill:#ffffff;fill-opacity:1;stroke:none"
       id="rect3761"
       width="62.113621"
       height="539.16071"
       x="431.60864"
       y="-734.73389"
       ry="18.672174"
       transform="matrix(0.00287188,0.99999588,-0.99999674,0.0025527,0,0)"
       rx="20.004021" />
    <g
       transform="matrix(0.20182166,0.01677486,-0.01677486,0.20182166,564.01946,497.02224)"
       id="layer1-0"
       inkscape:label="Layer 1"
       style="stroke:none">
      <path
         inkscape:export-filename="/mnt/1A0AD1A80AD18165/SkyDrive/Dropbox/Objectdock Tabs/NYU/CSCI-GA 3303-MSG/Egg hunt/imgs/micha/lollipop.png"
         inkscape:export-ydpi="90"
         inkscape:export-xdpi="90"
         sodipodi:nodetypes="ccccc"
         inkscape:connector-curvature="0"
         id="path3801"
         d="M 238.60862,505.51314 20.836207,816.78352 c 7.967993,42.21318 22.423889,53.83021 69.019854,44.64671 L 303.01217,542.31241 z"
         style="fill:#87a65a;fill-opacity:1;stroke:none" />
      <path
         inkscape:export-ydpi="90"
         inkscape:export-xdpi="90"
         inkscape:export-filename="/mnt/1A0AD1A80AD18165/SkyDrive/Dropbox/Objectdock Tabs/NYU/CSCI-GA 3303-MSG/Egg hunt/imgs/micha/lollipop.png"
         transform="matrix(1.1052931,0,0,1.1052931,-101.20141,-118.47329)"
         d="m 710,376.2941 c 0,138.07119 -111.92881,250 -250,250 -138.07119,0 -250,-111.92881 -250,-250 0,-138.07119 111.92881,-250 250,-250 138.07119,0 250,111.92881 250,250 z"
         sodipodi:ry="250"
         sodipodi:rx="250"
         sodipodi:cy="376.2941"
         sodipodi:cx="460"
         id="path3010"
         style="fill:#87a65a;fill-opacity:1;stroke:none"
         sodipodi:type="arc" />
      <path
         inkscape:export-ydpi="90"
         inkscape:export-xdpi="90"
         inkscape:export-filename="/mnt/1A0AD1A80AD18165/SkyDrive/Dropbox/Objectdock Tabs/NYU/CSCI-GA 3303-MSG/Egg hunt/imgs/micha/lollipop.png"
         transform="matrix(1.0620104,0,0,1.0620104,-131.61895,-59.341529)"
         d="m 720,332.72269 c 0,120.31918 -97.53797,217.85714 -217.85715,217.85714 -120.31918,0 -217.85714,-97.53796 -217.85714,-217.85714 0,-120.31918 97.53796,-217.85715 217.85714,-217.85715 C 622.46203,114.86554 720,212.40351 720,332.72269 z"
         sodipodi:ry="217.85715"
         sodipodi:rx="217.85715"
         sodipodi:cy="332.72269"
         sodipodi:cx="502.14285"
         id="path3023"
         style="fill:#d9bc4a;fill-opacity:1;stroke:none"
         sodipodi:type="arc" />
      <path
         inkscape:export-ydpi="90"
         inkscape:export-xdpi="90"
         inkscape:export-filename="/mnt/1A0AD1A80AD18165/SkyDrive/Dropbox/Objectdock Tabs/NYU/CSCI-GA 3303-MSG/Egg hunt/imgs/micha/lollipop.png"
         transform="matrix(0.95976591,0,0,0.95976591,-92.588703,-39.975083)"
         d="m 710.00002,352.00839 c 0,107.30104 -86.98468,194.28572 -194.28573,194.28572 -107.30104,0 -194.28572,-86.98468 -194.28572,-194.28572 0,-107.30104 86.98468,-194.28572 194.28572,-194.28572 107.30105,0 194.28573,86.98468 194.28573,194.28572 z"
         sodipodi:ry="194.28572"
         sodipodi:rx="194.28572"
         sodipodi:cy="352.00839"
         sodipodi:cx="515.71429"
         id="path3025"
         style="fill:#cd945b;fill-opacity:1;stroke:none"
         sodipodi:type="arc" />
      <path
         inkscape:export-ydpi="90"
         inkscape:export-xdpi="90"
         inkscape:export-filename="/mnt/1A0AD1A80AD18165/SkyDrive/Dropbox/Objectdock Tabs/NYU/CSCI-GA 3303-MSG/Egg hunt/imgs/micha/lollipop.png"
         transform="matrix(0.88054608,0,0,0.88054608,-27.434537,-21.551252)"
         d="m 657.14287,361.2941 c 0,91.91596 -74.51261,166.42857 -166.42858,166.42857 -91.91596,0 -166.42857,-74.51261 -166.42857,-166.42857 0,-91.91597 74.51261,-166.42858 166.42857,-166.42858 91.91597,0 166.42858,74.51261 166.42858,166.42858 z"
         sodipodi:ry="166.42857"
         sodipodi:rx="166.42857"
         sodipodi:cy="361.2941"
         sodipodi:cx="490.71429"
         id="path3027"
         style="fill:#c35e73;fill-opacity:1;stroke:none"
         sodipodi:type="arc" />
      <path
         inkscape:export-ydpi="90"
         inkscape:export-xdpi="90"
         inkscape:export-filename="/mnt/1A0AD1A80AD18165/SkyDrive/Dropbox/Objectdock Tabs/NYU/CSCI-GA 3303-MSG/Egg hunt/imgs/micha/lollipop.png"
         transform="matrix(0.74924775,0,0,0.74924775,47.660568,44.043675)"
         d="m 614.28572,333.43695 c 0,78.10885 -63.31973,141.42857 -141.42857,141.42857 -78.10885,0 -141.42858,-63.31972 -141.42858,-141.42857 0,-78.10884 63.31973,-141.42857 141.42858,-141.42857 78.10884,0 141.42857,63.31973 141.42857,141.42857 z"
         sodipodi:ry="141.42857"
         sodipodi:rx="141.42857"
         sodipodi:cy="333.43695"
         sodipodi:cx="472.85715"
         id="path3029"
         style="fill:#5f93a0;fill-opacity:1;stroke:none"
         sodipodi:type="arc" />
      <path
         inkscape:export-ydpi="90"
         inkscape:export-xdpi="90"
         inkscape:export-filename="/mnt/1A0AD1A80AD18165/SkyDrive/Dropbox/Objectdock Tabs/NYU/CSCI-GA 3303-MSG/Egg hunt/imgs/micha/lollipop.png"
         transform="matrix(0.55406912,0,0,0.55406912,147.36163,113.23556)"
         d="m 587.14286,323.43695 c 0,70.21906 -56.9238,127.14286 -127.14286,127.14286 -70.21906,0 -127.14286,-56.9238 -127.14286,-127.14286 0,-70.21906 56.9238,-127.14286 127.14286,-127.14286 70.21906,0 127.14286,56.9238 127.14286,127.14286 z"
         sodipodi:ry="127.14286"
         sodipodi:rx="127.14286"
         sodipodi:cy="323.43695"
         sodipodi:cx="460"
         id="path3031"
         style="fill:#000000;fill-opacity:0;stroke:none"
         sodipodi:type="arc" />
    </g>
    <rect
       style="fill:#fcfcfc;fill-opacity:0.74117647;stroke:none"
       id="rect3761-4"
       width="62.113621"
       height="539.16071"
       x="164.87004"
       y="-546.44708"
       ry="18.672174"
       transform="matrix(0.00287188,0.99999588,-0.99999674,0.0025527,0,0)"
       rx="20.004021" />
    <g
       transform="matrix(0.27566196,0,0,0.27566196,33.740994,-127.98478)"
       id="layer1-1"
       inkscape:label="Layer 1">
      <path
         transform="matrix(1.0860565,0,-0.00303013,1.089102,-72.950811,482.13523)"
         d="m 505.07628,283.70554 c 0,110.46258 -89.54762,200.0102 -200.01021,200.0102 -110.46259,0 -200.01021,-89.54762 -200.01021,-200.0102 0,-110.46259 89.54762,-200.010212 200.01021,-200.010212 110.46259,0 200.01021,89.547622 200.01021,200.010212 z"
         sodipodi:ry="200.01021"
         sodipodi:rx="200.01021"
         sodipodi:cy="283.70554"
         sodipodi:cx="305.06607"
         id="path2988"
         style="fill:#ffffff;fill-opacity:1;stroke:#4e1825;stroke-width:2;stroke-miterlimit:4;stroke-opacity:1;stroke-dasharray:none"
         sodipodi:type="arc" />
      <path
         sodipodi:nodetypes="ccc"
         inkscape:connector-curvature="0"
         id="path3762"
         d="m 134.9187,613.00459 c 81.92384,26.49012 165.67333,22.62866 246.78535,-0.004 -76.72953,-52.64739 -172.51095,-52.41146 -246.78535,0.004 z"
         style="fill:#c35e73;fill-opacity:1;stroke:none" />
      <path
         sodipodi:nodetypes="ccccc"
         inkscape:connector-curvature="0"
         id="path3764"
         d="m 135.32777,613.02623 c -17.45708,10.76644 -31.58846,24.99866 -46.291577,41.41878 111.765057,34.2647 225.366037,40.00278 335.509367,-1.95345 -12.89855,-13.88508 -22.85937,-25.64214 -43.3812,-39.64372 -77.94789,21.47941 -161.40048,25.73863 -245.83659,0.17839 z"
         style="fill:#cd945b;fill-opacity:1;stroke:none" />
      <path
         sodipodi:nodetypes="ccccc"
         inkscape:connector-curvature="0"
         id="path3766"
         d="M 90.290883,654.04545 C 60.20126,687.93132 45.747958,742.69058 45.067546,753.96748 174.21029,784.45967 328.94042,757.60046 450.96389,693.0606 437.70868,670.20333 436.79199,668.15151 423.88213,652.32265 313.63217,693.77404 201.35178,688.01083 90.290883,654.04545 z"
         style="fill:#d9bc4a;fill-opacity:1;stroke:none" />
      <path
         sodipodi:nodetypes="ccccc"
         inkscape:connector-curvature="0"
         id="path3768"
         d="M 47.073247,738.70304 C 43.96222,760.33557 43.984029,751.548 40.849763,778.42547 191.84654,822.97638 333.52982,809.60654 472.825,775.70616 473.80744,747.72995 461.14104,712.04604 450.78549,692.37762 331.60987,762.47314 129.99333,765.64534 47.073247,738.70304 z"
         style="fill:#87a65a;fill-opacity:1;stroke:none" />
      <path
         sodipodi:nodetypes="ccccc"
         inkscape:connector-curvature="0"
         id="path3770"
         d="m 41.852612,769.98727 c -2.049455,17.22771 -0.818632,53.93055 6.660523,77.87248 125.167795,18.64742 291.572595,3.7919 425.063465,-47.14346 -0.0412,-13.5938 0.78813,-1.91914 -0.59166,-28.02185 -128.30882,31.08834 -277.89345,51.8098 -431.132328,-2.70717 z"
         style="fill:#b675b9;fill-opacity:1;stroke:none" />
      <path
         sodipodi:nodetypes="ccccc"
         inkscape:connector-curvature="0"
         id="path3772"
         d="m 48.765432,847.1984 c 4.471341,16.85051 15.229882,47.58252 27.5647,62.86032 185.131828,60.80077 303.630658,-14.15999 395.199608,-85.02283 1.35882,-12.89207 1.32984,-4.51331 1.90064,-24.41776 C 310.08146,851.9466 171.54133,864.03261 48.765432,847.1984 z"
         style="fill:#5f93a0;fill-opacity:1;stroke:none" />
      <path
         sodipodi:nodetypes="ccccc"
         inkscape:connector-curvature="0"
         id="path3774"
         d="m 76.025581,909.9236 c 21.640452,32.17219 28.219689,34.5329 43.122099,48.19495 187.37564,46.63225 248.65685,-18.90475 332.49379,-71.26687 10.61324,-23.69343 20.00376,-44.70368 21.52766,-77.37158 -106.5312,73.2143 -245.70834,90.51875 -397.143549,100.4435 z"
         style="fill:#c35e73;fill-opacity:1;stroke:none" />
      <path
         sodipodi:nodetypes="ccc"
         inkscape:connector-curvature="0"
         id="path3776"
         d="M 117.16316,957.16187 C 232.72579,1053.9348 394.935,1003.841 451.38822,886.50633 343.98561,947.6926 232.66254,978.59996 117.16316,957.16187 z"
         style="fill:#cd945b;fill-opacity:1;stroke:none" />
    </g>
  </g>
</svg>
